<?xml version="1.0" encoding="utf-8"?>
<!-- Generator: Adobe Illustrator 17.0.0, SVG Export Plug-In . SVG Version: 6.00 Build 0)  -->
<!DOCTYPE svg PUBLIC "-//W3C//DTD SVG 1.1//EN" "http://www.w3.org/Graphics/SVG/1.1/DTD/svg11.dtd">
<svg version="1.1" id="Layer_1" xmlns="http://www.w3.org/2000/svg" xmlns:xlink="http://www.w3.org/1999/xlink" x="0px" y="0px"
	 width="244.231px" height="176.282px" viewBox="0 0 244.231 176.282" enable-background="new 0 0 244.231 176.282"
	 xml:space="preserve">
<path fill="#4A4A49" d="M3.103,143.741h5.67v21.939c0,2.52,1.723,2.642,4.097,2.642c0.45,0,3.098-0.537,3.098-0.537l0.673,4.891
	c0,0-5.527,1.24-6.473,1.24c-3.149,0-7.064-0.811-7.064-7.381V143.741z"/>
<path fill="#4A4A49" d="M30.492,150.2c6.615,0,10.17,4.814,10.17,10.89c0,0.675-0.135,2.205-0.135,2.205h-15.84
	c0.359,4.005,3.465,6.075,6.885,6.075c3.689,0,6.614-2.52,6.614-2.52l2.205,4.095c0,0-3.51,3.285-9.225,3.285
	c-7.604,0-12.329-5.49-12.329-12.015C18.838,155.15,23.652,150.2,30.492,150.2z M34.902,159.38c-0.09-3.104-2.025-4.77-4.545-4.77
	c-2.926,0-4.95,1.8-5.49,4.77H34.902z"/>
<path fill="#4A4A49" d="M57.104,159.29h0.766v-0.314c0-3.016-1.89-4.051-4.41-4.051c-3.285,0-6.299,2.205-6.299,2.205L45,153.035
	c0,0,3.555-2.835,9-2.835c6.029,0,9.539,3.33,9.539,9.135v14.355h-5.266v-1.89c0-0.9,0.091-1.62,0.091-1.62h-0.091
	c0.046,0-1.754,4.05-6.975,4.05c-4.094,0-7.784-2.564-7.784-7.154C43.515,159.785,53.369,159.29,57.104,159.29z M52.739,169.774
	c3.015,0,5.175-3.24,5.175-6.029v-0.54h-0.99c-2.924,0-7.649,0.405-7.649,3.6C49.274,168.335,50.399,169.774,52.739,169.774z"/>
<path fill="#4A4A49" d="M70.01,166.85c0,0,2.521,2.52,6.256,2.52c1.619,0,3.014-0.721,3.014-2.07c0-3.42-11.158-2.97-11.158-10.35
	c0-4.275,3.824-6.75,8.773-6.75c5.176,0,7.695,2.61,7.695,2.61l-2.115,4.23c0,0-2.115-1.98-5.625-1.98
	c-1.484,0-2.924,0.631-2.924,2.07c0,3.24,11.159,2.835,11.159,10.215c0,3.824-3.33,6.885-8.774,6.885
	c-5.715,0-8.91-3.375-8.91-3.375L70.01,166.85z"/>
<path fill="#4A4A49" d="M99.529,150.2c6.615,0,10.17,4.814,10.17,10.89c0,0.675-0.135,2.205-0.135,2.205h-15.84
	c0.36,4.005,3.465,6.075,6.885,6.075c3.689,0,6.615-2.52,6.615-2.52l2.205,4.095c0,0-3.51,3.285-9.225,3.285
	c-7.605,0-12.33-5.49-12.33-12.015C87.875,155.15,92.69,150.2,99.529,150.2z M103.94,159.38c-0.09-3.104-2.025-4.77-4.545-4.77
	c-2.925,0-4.949,1.8-5.49,4.77H103.94z"/>
<path fill="#43B577" d="M125.486,150.2c7.019,0,12.644,4.995,12.644,12.015c0,7.066-5.625,12.015-12.6,12.015
	c-7.02,0-12.645-4.949-12.645-12.015C112.886,155.195,118.511,150.2,125.486,150.2z M125.531,169.37
	c3.689,0,6.795-2.881,6.795-7.155c0-4.229-3.105-7.155-6.795-7.155c-3.736,0-6.84,2.926-6.84,7.155
	C118.69,166.489,121.795,169.37,125.531,169.37z"/>
<path fill="#43B577" d="M142.654,150.74h5.488v2.655c0,0.854-0.09,1.574-0.09,1.574h0.09c0.99-1.935,3.51-4.77,8.145-4.77
	c5.086,0,7.965,2.655,7.965,8.73v14.759h-5.67v-13.589c0-2.791-0.719-4.68-3.645-4.68c-3.059,0-5.309,1.934-6.164,4.68
	c-0.314,0.944-0.404,1.98-0.404,3.059v10.53h-5.715V150.74z"/>
<path fill="#43B577" d="M169.834,143.741h5.67v21.939c0,2.52,0.854,3.149,2.34,3.149c0.449,0,0.854-0.045,0.854-0.045v4.995
	c0,0-0.854,0.136-1.799,0.136c-3.15,0-7.064-0.811-7.064-7.381V143.741z"/>
<path fill="#43B577" d="M182.72,152.74h5.715v20.949h-5.715V152.74z"/>
<path fill="#43B577" d="M194.384,150.74h5.49v2.655c0,0.854-0.09,1.574-0.09,1.574h0.09c0.99-1.935,3.51-4.77,8.145-4.77
	c5.084,0,7.965,2.655,7.965,8.73v14.759h-5.67v-13.589c0-2.791-0.721-4.68-3.645-4.68c-3.06,0-5.31,1.934-6.166,4.68
	c-0.314,0.944-0.404,1.98-0.404,3.059v10.53h-5.715V150.74z"/>
<path fill="#43B577" d="M231.951,150.2c6.613,0,10.17,4.814,10.17,10.89c0,0.675-0.137,2.205-0.137,2.205h-15.838
	c0.359,4.005,3.465,6.075,6.885,6.075c3.689,0,6.613-2.52,6.613-2.52l2.205,4.095c0,0-3.51,3.285-9.225,3.285
	c-7.604,0-12.328-5.49-12.328-12.015C220.296,155.15,225.111,150.2,231.951,150.2z M236.361,159.38
	c-0.092-3.104-2.025-4.77-4.545-4.77c-2.926,0-4.951,1.8-5.49,4.77H236.361z"/>
<circle fill="#43B577" cx="185.579" cy="146.245" r="3.552"/>
<circle fill="#43B577" cx="188.414" cy="108.362" r="9.191"/>
<path fill="#43B577" d="M212.104,110.904c1.747,2.404,1.218,5.772-1.183,7.52c-2.405,1.752-5.773,1.221-7.521-1.18
	c-1.752-2.405-1.221-5.773,1.181-7.52C206.986,107.973,210.352,108.502,212.104,110.904z"/>
<g>
	<path fill="#43B577" d="M121.03,75.912c-6.381,0-12.163-2.565-16.396-6.707h-0.372c4.92,6.128,8.299,10.059,16.768,10.059
		c8.468,0,11.847-3.931,16.767-10.059h-0.371C133.191,73.346,127.408,75.912,121.03,75.912z"/>
	<path fill="#43B577" d="M139.433,42.614c-0.268-0.565-0.93-1.341-1.773-1.892c-0.906-0.615-1.971-0.929-2.578-0.911h-28.509
		c-0.597-0.018-1.666,0.296-2.568,0.911c-0.848,0.552-1.509,1.327-1.772,1.892l-5.744,18.243h48.686L139.433,42.614z"/>
	<path fill="#43B577" d="M93.332,68.325c-3.154,0-5.707,2.559-5.707,5.71c0,3.151,2.553,5.708,5.707,5.708
		c3.156,0,5.702-2.557,5.702-5.708C99.034,70.884,96.488,68.325,93.332,68.325z"/>
	<path fill="#43B577" d="M181.716,67.353c-0.511-0.702-1.059-1.36-1.639-1.975c4.326-6.748,4.331-15.733-0.677-22.599
		c-2.858-3.931-6.882-6.515-11.251-7.623c1.114-5.118,0.119-10.669-3.209-15.234c-5.723-7.866-16.354-10.05-24.637-5.404
		c-0.419-0.144-0.84-0.283-1.262-0.417c-0.423-0.766-0.898-1.514-1.428-2.239c-6.828-9.389-19.978-11.459-29.366-4.619
		c-2.848,2.074-5.022,4.73-6.478,7.685c-0.076,0.028-0.153,0.056-0.229,0.085c-6.216-3.117-13.914-2.737-19.926,1.643
		c-6.006,4.374-8.729,11.579-7.674,18.449c-2.468,0.601-4.862,1.685-7.043,3.274c-8.617,6.274-10.754,18.137-5.069,26.991
		c-6.521,6.872-7.419,17.629-1.641,25.561c2.752,3.781,6.579,6.314,10.756,7.488c-0.433,4.209,0.628,8.587,3.315,12.276
		c4.079,5.603,10.816,8.119,17.219,7.081c17.691,10.552,40.405,10.963,58.956-0.17c5.137,1.773,11.028,1.089,15.758-2.355
		c5.658-4.123,8.064-11.05,6.699-17.481c1.541-0.61,3.03-1.423,4.432-2.444C186.262,88.812,188.232,76.289,181.716,67.353z
		 M160.767,88.576h-5.031v6.494c0,3.795-3.082,6.877-6.88,6.877c-3.804,0-6.887-3.082-6.887-6.877v-6.494h-41.753v6.494
		c0,3.803-3.081,6.877-6.884,6.877c-3.805,0-6.887-3.074-6.887-6.877v-6.494h-4.787v-22.67c0-2.79,2.263-5.05,5.055-5.05h1.584
		l6.59-20.947l0.071-0.174c1.007-2.362,2.725-4.171,4.712-5.511c1.999-1.325,4.334-2.213,6.902-2.229h28.509
		c2.582,0.016,4.904,0.904,6.907,2.229c1.996,1.34,3.712,3.149,4.718,5.511l0.071,0.17l6.589,20.951h2.348
		c2.79,0,5.053,2.26,5.053,5.05V88.576z"/>
	<path fill="#43B577" d="M148.856,68.325c-3.155,0-5.708,2.559-5.708,5.71c0,3.151,2.553,5.708,5.708,5.708
		c3.15,0,5.701-2.557,5.701-5.708C154.557,70.884,152.006,68.325,148.856,68.325z"/>
</g>
<g>
</g>
<g>
</g>
<g>
</g>
<g>
</g>
<g>
</g>
<g>
</g>
</svg>
