<svg xmlns="http://www.w3.org/2000/svg" viewBox="0 0 148 148">
  <defs>
    <style>
      .cls-1 {
        fill: #ff5200;
      }
    </style>
  </defs>
  <g id="Group_649" data-name="Group 649" transform="translate(-128 -582)">
    <circle id="Ellipse_14" data-name="Ellipse 14" class="cls-1" cx="74" cy="74" r="74" transform="translate(128 582)"/>
    <g id="_6b94140275585a2da5f52fbb39be8bc2" data-name="6b94140275585a2da5f52fbb39be8bc2" transform="translate(156.932 464.2)">
      <path id="Path_7" data-name="Path 7" d="M74.3,167.8H15.872A5.881,5.881,0,0,0,10,173.679v35.831a5.875,5.875,0,0,0,5.872,5.872H74.3a5.866,5.866,0,0,0,5.872-5.872V173.672A5.866,5.866,0,0,0,74.3,167.8Zm-2.95,5.019L49.361,192.31c-1.919,1.711-3.344,2.556-4.253,2.556s-2.334-.845-4.253-2.556l-21.99-19.491ZM15.113,207.59V176.543L32.57,191.852,15.113,207.59ZM19.4,210.3l16.977-15.08,2.785,2.442a9.373,9.373,0,0,0,11.908,0l2.785-2.442L70.835,210.3Zm55.7-2.707L57.645,191.852,75.1,176.543V207.59Z" transform="translate(0 0)"/>
    </g>
  </g>
</svg>
