<?xml version="1.0" encoding="UTF-8" standalone="no"?>
<svg width="44px" height="34px" viewBox="0 0 44 34" version="1.1" xmlns="http://www.w3.org/2000/svg" xmlns:xlink="http://www.w3.org/1999/xlink" xmlns:sketch="http://www.bohemiancoding.com/sketch/ns">
    <!-- Generator: Sketch 3.4 (15575) - http://www.bohemiancoding.com/sketch -->
    <title>Fill-1 Clipped</title>
    <desc>Created with Sketch.</desc>
    <defs></defs>
    <g id="Page-1" stroke="none" stroke-width="1" fill="none" fill-rule="evenodd" sketch:type="MSPage">
        <g id="Fill-1-Clipped" sketch:type="MSLayerGroup" fill="#008c7d">
            <path d="M34,29.3828 L25.617,20.9998 L34,12.6178 L34,29.3828 L34,29.3828 Z M32,31.9998 L4,31.9998 C3.502,31.9998 3.052,31.8118 2.701,31.5098 L11.797,22.4138 L15.23,25.8478 C15.996,26.6138 16.998,26.9958 18,26.9958 C19.003,26.9958 20.005,26.6138 20.769,25.8478 L24.203,22.4138 L33.299,31.5098 C32.949,31.8118 32.498,31.9998 32,31.9998 L32,31.9998 L32,31.9998 Z M2,12.6168 L10.383,20.9998 L2,29.3828 L2,12.6168 L2,12.6168 Z M4,9.9998 L32,9.9998 C32.498,9.9998 32.949,10.1898 33.299,10.4908 L19.355,24.4348 C18.993,24.7948 18.512,24.9958 18,24.9958 C17.488,24.9958 17.007,24.7948 16.644,24.4348 L2.701,10.4898 C3.052,10.1898 3.502,9.9998 4,9.9998 L4,9.9998 L4,9.9998 Z M32,7.9998 L4,7.9998 C1.791,7.9998 0,9.7908 0,11.9998 L0,29.9998 C0,32.2088 1.791,33.9998 4,33.9998 L32,33.9998 C34.209,33.9998 36,32.2088 36,29.9998 L36,11.9998 C36,9.7908 34.209,7.9998 32,7.9998 L32,7.9998 L32,7.9998 Z M40,-0.0002 L12,-0.0002 C9.791,-0.0002 8,1.7908 8,3.9998 L8,4.9998 C8,5.5528 8.447,5.9998 9,5.9998 C9.553,5.9998 10,5.5528 10,4.9998 L10,3.9998 C10,2.8958 10.895,1.9998 12,1.9998 L40,1.9998 C41.104,1.9998 42,2.8958 42,3.9998 L42,21.9998 C42,23.1048 41.104,23.9998 40,23.9998 L39,23.9998 C38.447,23.9998 38,24.4478 38,24.9998 C38,25.5528 38.447,25.9998 39,25.9998 L40,25.9998 C42.209,25.9998 44,24.2088 44,21.9998 L44,3.9998 C44,1.7908 42.209,-0.0002 40,-0.0002 L40,-0.0002 L40,-0.0002 Z" id="Fill-1" sketch:type="MSShapeGroup"></path>
        </g>
    </g>
</svg>