<?xml version="1.0" encoding="UTF-8" standalone="no"?>
<svg width="34px" height="22px" viewBox="0 0 34 22" version="1.1" xmlns="http://www.w3.org/2000/svg" xmlns:xlink="http://www.w3.org/1999/xlink">
    <g id="Page-1" stroke="none" stroke-width="1" fill="none" fill-rule="evenodd" >
        <path d="M33,10 L1,10 C0.448,10 0,10.448 0,11 C0,11.553 0.448,12.001 1,12.001 L33,12.001 C33.552,12.001 34,11.553 34,11 C34,10.448 33.552,10 33,10 M33,20 L1,20 C0.448,20 0,20.448 0,21 C0,21.553 0.448,22 1,22 L33,22 C33.552,22 34,21.553 34,21 C34,20.448 33.552,20 33,20 M1,2 L33,2 C33.552,2 34,1.553 34,1 C34,0.448 33.552,0 33,0 L1,0 C0.448,0 0,0.448 0,1 C0,1.553 0.448,2 1,2" fill="#008c7d" ></path>
    </g>
</svg>