<?xml version="1.0" encoding="UTF-8" standalone="no"?>
<svg width="44px" height="44px" viewBox="0 0 44 44" version="1.1" xmlns="http://www.w3.org/2000/svg" xmlns:xlink="http://www.w3.org/1999/xlink">
    <g id="Page-1" stroke="none" stroke-width="1" fill="none" fill-rule="evenodd">
        <path d="M19,36.001 C9.611,36.001 2,28.389 2,19 C2,9.611 9.611,2 19,2 C28.389,2 36,9.611 36,19 C36,28.389 28.389,36.001 19,36.001 M43.707,42.293 L33.108,31.694 C36.14,28.328 38,23.887 38,19 C38,8.507 29.494,0 19,0 C8.507,0 0,8.507 0,19 C0,29.494 8.507,38 19,38 C23.887,38 28.328,36.14 31.694,33.108 L42.293,43.707 C42.474,43.889 42.724,44 43,44 C43.553,44 44,43.553 44,43 C44,42.725 43.889,42.475 43.707,42.293" fill="#008c7d"></path>
    </g>
</svg>