<?xml version="1.0" encoding="UTF-8" standalone="no"?>
<svg width="44px" height="40px" viewBox="0 0 44 40" version="1.1" xmlns="http://www.w3.org/2000/svg" xmlns:xlink="http://www.w3.org/1999/xlink" xmlns:sketch="http://www.bohemiancoding.com/sketch/ns">
    <!-- Generator: Sketch 3.4 (15575) - http://www.bohemiancoding.com/sketch -->
    <title>Page 1</title>
    <desc>Created with Sketch.</desc>
    <defs>
        <path id="path-1" d="M0,0.985 L44,0.985 L44,41 L0,41 L0,0.985 Z"></path>
    </defs>
    <g id="Page-1" stroke="none" stroke-width="1" fill="none" fill-rule="evenodd" sketch:type="MSPage">
        <g sketch:type="MSLayerGroup" transform="translate(0.000000, -1.000000)">
            <mask id="mask-2" sketch:name="Clip 2" fill="white">
                <use xlink:href="#path-1"></use>
            </mask>
            <g id="Clip-2"></g>
            <path d="M42,15 L27.663,15 C26.799,13.858 25.906,12.519 25.094,11.001 L42,11.001 L42,15 Z M40,27 L23,27 L23,17 L26.664,17 C28.563,19.365 30.179,20.736 30.314,20.85 C30.574,21.064 30.91,21.128 31.214,21.046 C31.406,20.995 31.584,20.886 31.723,20.721 C32.075,20.297 32.018,19.666 31.595,19.312 C31.57,19.292 30.602,18.467 29.299,17 L40,17 L40,27 Z M40,39 L23,39 L23,29 L40,29 L40,39 Z M23,11.319 C23.682,12.675 24.426,13.906 25.179,15 L23,15 L23,11.319 Z M26.219,3.786 C28.61,2.405 31.444,2.837 32.549,4.75 C33.291,6.034 33.047,7.652 32.094,9 L24.129,9 C23.915,8.507 23.713,8.001 23.527,7.479 C23.738,6.077 24.689,4.669 26.219,3.786 L26.219,3.786 Z M21,15 L18.79,15 C19.555,13.89 20.31,12.639 21,11.258 L21,15 Z M21,27 L4,27 L4,17 L14.671,17 C13.368,18.467 12.398,19.292 12.374,19.312 C11.951,19.666 11.894,20.297 12.247,20.721 C12.385,20.886 12.562,20.995 12.755,21.046 C13.059,21.128 13.394,21.064 13.654,20.85 C13.79,20.736 15.405,19.365 17.305,17 L21,17 L21,27 Z M21,39 L4,39 L4,29 L21,29 L21,39 Z M2,15 L2,11.001 L18.875,11.001 C18.062,12.519 17.17,13.858 16.307,15 L2,15 Z M11.42,4.75 C12.524,2.838 15.358,2.405 17.75,3.786 C19.28,4.67 20.23,6.078 20.441,7.48 C20.256,8.001 20.054,8.507 19.84,9 L11.875,9 C10.922,7.652 10.679,6.034 11.42,4.75 L11.42,4.75 Z M42,9 L34.373,9 C35.158,7.276 35.209,5.356 34.281,3.75 C32.624,0.881 28.566,0.121 25.219,2.054 C23.93,2.798 22.973,3.844 22.336,5 C22.303,4.987 22.278,4.963 22.244,4.954 C22.223,4.948 22.201,4.953 22.18,4.949 C22.124,4.937 22.069,4.937 22.013,4.936 C21.964,4.937 21.916,4.937 21.868,4.945 C21.82,4.951 21.773,4.94 21.725,4.954 C21.69,4.963 21.666,4.987 21.633,5 C20.996,3.844 20.039,2.798 18.75,2.055 C15.402,0.121 11.345,0.881 9.687,3.75 C8.761,5.356 8.81,7.276 9.596,9 L2,9 C0.896,9 0,9.896 0,11.001 L0,15 C0,16.105 0.896,17 2,17 L2,39 C2,40.104 2.896,41 4,41 L40,41 C41.104,41 42,40.104 42,39 L42,17 C43.104,17 44,16.105 44,15 L44,11.001 C44,9.896 43.104,9 42,9 L42,9 Z" id="Fill-1" fill="#008c7d" sketch:type="MSShapeGroup" mask="url(#mask-2)"></path>
        </g>
    </g>
</svg>