<?xml version="1.0" encoding="UTF-8" standalone="no"?>
<svg width="44px" height="44px" viewBox="0 0 44 44" version="1.1" xmlns="http://www.w3.org/2000/svg" xmlns:xlink="http://www.w3.org/1999/xlink" xmlns:sketch="http://www.bohemiancoding.com/sketch/ns">
    <!-- Generator: Sketch 3.4 (15575) - http://www.bohemiancoding.com/sketch -->
    <title>icon-phone</title>
    <desc>Created with Sketch.</desc>
    <defs></defs>
    <g id="Page-1" stroke="none" stroke-width="1" fill="none" fill-rule="evenodd" sketch:type="MSPage">
        <g id="icon-phone" sketch:type="MSLayerGroup" fill="#008c7d">
            <g id="Page-1" sketch:type="MSShapeGroup">
                <path d="M33.5,42 C32.246,42 31.025,41.723 29.872,41.177 C29.764,41.126 29.652,41.086 29.539,41.057 C18.171,35.257 8.751,25.839 2.95,14.473 C2.918,14.356 2.877,14.24 2.824,14.129 C2.277,12.974 2,11.753 2,10.5 C2,5.65 6.247,2 9,2 C9.36,2 9.598,2.184 9.707,2.293 C9.732,2.319 9.777,2.371 9.843,2.477 C9.878,2.533 9.917,2.588 9.957,2.641 L16.542,11.107 C16.593,11.173 16.648,11.234 16.707,11.293 C16.816,11.402 17,11.641 17,12 C17,12.177 16.951,12.344 16.855,12.498 L14.626,14.709 C14.616,14.72 14.606,14.729 14.596,14.74 C13.788,15.5 13.328,16.553 13.328,17.656 C13.328,18.689 13.729,19.674 14.426,20.412 C14.451,20.451 14.477,20.49 14.505,20.528 C16.963,23.925 19.983,26.934 23.483,29.473 C23.51,29.492 23.537,29.511 23.565,29.529 C24.304,30.238 25.295,30.646 26.334,30.646 C27.378,30.646 28.385,30.229 29.132,29.494 C29.17,29.461 29.208,29.426 29.244,29.389 L31.484,27.132 C31.641,27.034 31.809,26.984 31.984,26.984 C32.344,26.984 32.582,27.168 32.691,27.277 C32.75,27.336 32.812,27.391 32.877,27.443 L41.344,34.027 C41.398,34.069 41.455,34.108 41.513,34.145 C41.619,34.211 41.667,34.254 41.691,34.277 C41.801,34.387 41.984,34.624 41.984,34.984 C41.984,35.052 41.988,35.118 41.995,35.186 C41.838,37.939 38.243,42 33.5,42 M43.999,34.984 L43.984,34.984 C43.984,34.156 43.648,33.406 43.106,32.863 C42.946,32.703 42.765,32.568 42.572,32.448 L34.106,25.863 C33.562,25.32 32.813,24.984 31.984,24.984 C31.306,24.984 30.687,25.219 30.187,25.6 L27.824,27.98 L27.818,27.975 C27.452,28.384 26.926,28.646 26.334,28.646 C25.657,28.646 25.062,28.309 24.699,27.795 C24.687,27.814 24.67,27.833 24.657,27.854 C21.389,25.482 18.493,22.628 16.125,19.356 C16.148,19.341 16.169,19.323 16.192,19.308 C15.671,18.943 15.328,18.341 15.328,17.656 C15.328,17.044 15.607,16.502 16.038,16.133 L16.035,16.129 L18.386,13.796 C18.768,13.297 19,12.679 19,12 C19,11.172 18.664,10.422 18.121,9.879 L11.536,1.412 C11.416,1.221 11.281,1.039 11.121,0.879 C10.578,0.336 9.828,0 9,0 C5,0 0,4.701 0,10.5 C0,12.106 0.372,13.623 1.016,14.984 L0.983,15.018 C7,27 17,37 28.983,43.017 L29.016,42.984 C30.377,43.629 31.893,44 33.5,44 C39.299,44 44,39 44,35 C44,34.995 43.999,34.99 43.999,34.984" id="Shape"></path>
            </g>
        </g>
    </g>
</svg>