<?xml version="1.0" encoding="utf-8"?>
<!-- Generator: Adobe Illustrator 17.0.0, SVG Export Plug-In . SVG Version: 6.00 Build 0)  -->
<!DOCTYPE svg PUBLIC "-//W3C//DTD SVG 1.1//EN" "http://www.w3.org/Graphics/SVG/1.1/DTD/svg11.dtd">
<svg version="1.1" id="Lager_1" xmlns="http://www.w3.org/2000/svg" xmlns:xlink="http://www.w3.org/1999/xlink" x="0px" y="0px"
	 width="47.189px" height="51.081px" viewBox="0 0 47.189 51.081" enable-background="new 0 0 47.189 51.081" xml:space="preserve">
<path fill="#FFFFFF" d="M0,31.412V5.957c0-1.64,0.67-3.13,1.748-4.208C2.827,0.67,4.317,0,5.957,0h35.276
	c1.64,0,3.13,0.67,4.208,1.748c1.079,1.079,1.748,2.568,1.748,4.208v25.456c0,1.64-0.67,3.13-1.748,4.208s-2.568,1.748-4.208,1.748
	H23.019L12.584,47.804l-3.278,3.278v-4.635v-9.077h-3.35c-1.64,0-3.13-0.67-4.208-1.748C0.67,34.542,0,33.052,0,31.412L0,31.412z
	 M17.136,22.592c0,0.888-0.314,1.649-0.933,2.272c-0.621,0.626-1.377,0.941-2.254,0.941c-0.877,0-1.633-0.315-2.26-0.941
	c-0.624-0.623-0.944-1.385-0.944-2.272c0-0.893,0.317-1.652,0.944-2.284c0.625-0.629,1.382-0.947,2.26-0.947
	c0.877,0,1.636,0.318,2.254,0.947C16.826,20.94,17.136,21.698,17.136,22.592L17.136,22.592z M26.556,22.592
	c0,0.888-0.314,1.649-0.933,2.272c-0.621,0.626-1.377,0.941-2.254,0.941c-0.877,0-1.632-0.315-2.259-0.941
	c-0.624-0.623-0.944-1.385-0.944-2.272c0-0.893,0.317-1.652,0.944-2.284c0.624-0.629,1.382-0.947,2.259-0.947
	c0.877,0,1.635,0.318,2.254,0.947C26.245,20.94,26.556,21.698,26.556,22.592L26.556,22.592z M35.974,22.592
	c0,0.888-0.314,1.649-0.933,2.272c-0.621,0.626-1.377,0.941-2.254,0.941s-1.633-0.315-2.26-0.941
	c-0.624-0.623-0.944-1.385-0.944-2.272c0-0.893,0.317-1.652,0.944-2.284c0.624-0.629,1.382-0.947,2.26-0.947
	s1.636,0.318,2.254,0.947C35.664,20.94,35.974,21.698,35.974,22.592L35.974,22.592z M3.84,5.957v25.456
	c0,0.58,0.239,1.109,0.623,1.493c0.384,0.384,0.913,0.623,1.493,0.623h5.27h1.92v1.92v6.362l7.72-7.72l0.563-0.563h0.795h19.009
	c0.58,0,1.109-0.239,1.493-0.623c0.384-0.384,0.623-0.913,0.623-1.493V5.957c0-0.58-0.239-1.109-0.623-1.493
	c-0.384-0.384-0.913-0.623-1.493-0.623H5.957c-0.58,0-1.109,0.239-1.493,0.623C4.079,4.847,3.84,5.377,3.84,5.957L3.84,5.957z"/>
</svg>
