<?xml version="1.0" encoding="utf-8"?>
<!-- Generator: Adobe Illustrator 17.0.0, SVG Export Plug-In . SVG Version: 6.00 Build 0)  -->
<!DOCTYPE svg PUBLIC "-//W3C//DTD SVG 1.1//EN" "http://www.w3.org/Graphics/SVG/1.1/DTD/svg11.dtd">
<svg version="1.1" id="Layer_1" xmlns="http://www.w3.org/2000/svg" xmlns:xlink="http://www.w3.org/1999/xlink" x="0px" y="0px"
	 width="512px" height="512px" viewBox="0 0 512 512" enable-background="new 0 0 512 512" xml:space="preserve">
<path d="M399.913,368.626l14.015,15.045c2.565-1.813,5.012-3.782,7.313-5.91l-3.998-27.257
	C413.063,357.894,407.092,364.13,399.913,368.626z"/>
<path fill="#FFFFFF" d="M144.873,376.354l-60.604,65.061l9.626-65.636c-24.44-3.692-43.175-24.785-43.175-50.256V130.337
	c0-13.068,4.936-24.981,13.041-33.987V83.015c0-3.435,0.258-6.81,0.731-10.116c0.176-1.232,0.393-2.451,0.631-3.663
	c-20.785,12.439-34.734,35.168-34.734,61.101v195.188c0,17.133,6.177,33.688,17.397,46.619c6.558,7.554,14.578,13.59,23.487,17.783
	L54.688,503l99.034-106.314h219.26c2.979,0,5.909-0.205,8.793-0.563l-26.714-19.769H144.873z"/>
<path fill="#FFFFFF" d="M372.543,181.82c0-23.991-12.348-48.511-37.574-48.511c-25.931,0-38.633,23.991-38.633,49.746
	c0,25.402,13.761,48.158,38.104,48.158S372.543,208.81,372.543,181.82z M222.256,136.484h-0.353
	c-1.764,6.88-3.528,14.289-5.998,21.521l-11.643,34.399h35.986l-11.819-34.222C225.785,150.42,224.021,143.364,222.256,136.484z
	 M448.632,342.604c8.908-4.192,16.929-10.228,23.486-17.782c11.22-12.931,17.397-29.485,17.397-46.619V83.015
	c0-39.238-31.923-71.162-71.162-71.162H146.921c-35.803,0-65.502,26.584-70.431,61.046c-0.473,3.306-0.731,6.681-0.731,10.116
	v195.187c0,39.238,31.923,71.161,71.162,71.161h194.165L496,464L448.632,342.604z M169.869,187.994h-44.807v53.803h-15.523V122.901
	h64.034v12.877h-48.511v39.515h44.807L169.869,187.994L169.869,187.994z M255.949,241.797l-12.701-37.398h-42.161l-12.348,37.398
	h-15.877l40.574-118.896h18.346l40.573,118.896H255.949z M385.243,259.262c-16.052-4.234-31.752-8.997-45.512-13.76
	c-2.646-0.882-4.938-1.764-7.231-1.764c-28.402-1.059-52.393-21.874-52.393-60.33c0-38.104,23.108-62.624,55.215-62.624
	c32.458,0,53.449,25.049,53.449,60.154c0,30.694-14.112,50.099-33.869,57.155v0.706c11.819,2.999,24.697,5.822,34.752,7.585
	L385.243,259.262z M402.343,237.74l3.705-11.643c4.763,2.822,12.877,5.998,20.64,5.998c11.113,0,16.404-5.469,16.404-12.701
	c0-7.409-4.409-11.29-15.699-15.523c-15.523-5.645-22.756-13.936-22.756-24.167c0-13.759,11.29-25.049,29.459-25.049
	c8.644,0,16.23,2.293,20.816,5.292l-3.705,11.29c-3.352-2.117-9.525-5.116-17.464-5.116c-9.173,0-14.112,5.292-14.112,11.643
	c0,7.056,4.939,10.231,16.052,14.642c14.644,5.469,22.404,12.877,22.404,25.579c0,15.171-11.819,25.755-31.753,25.755
	C416.985,243.738,408.341,241.269,402.343,237.74z"/>
</svg>
