<?xml version="1.0" encoding="utf-8"?>
<!-- Generator: Adobe Illustrator 17.0.0, SVG Export Plug-In . SVG Version: 6.00 Build 0)  -->
<!DOCTYPE svg PUBLIC "-//W3C//DTD SVG 1.1//EN" "http://www.w3.org/Graphics/SVG/1.1/DTD/svg11.dtd">
<svg version="1.1" id="Lager_1" xmlns="http://www.w3.org/2000/svg" xmlns:xlink="http://www.w3.org/1999/xlink" x="0px" y="0px"
	 width="49.271px" height="49.938px" viewBox="0 0 49.271 49.938" enable-background="new 0 0 49.271 49.938" xml:space="preserve">
<path fill="#FFFFFF" d="M34.733,43.017c0.253-0.19,0.41-0.443,0.46-0.695c0.035-0.181,0.01-0.357-0.084-0.482l0.004-0.003
	l-4.982-6.152l-0.047-0.049c-0.095-0.126-0.257-0.199-0.44-0.215c-0.256-0.022-0.542,0.059-0.795,0.249l-2.562,1.928l-0.157,0.118
	l-0.111,0.05c-0.181,0.134-0.358,0.254-0.634,0.376l-0.006,0.005c-0.392,0.172-0.803,0.256-1.308,0.212
	c-0.349-0.03-0.693-0.131-1.007-0.301l0.001-0.003c-0.328-0.176-0.613-0.412-0.832-0.704L10.71,22.04
	c-0.143-0.189-0.378-0.728-0.458-1.085l-0.004,0.001c-0.036-0.16-0.058-0.335-0.06-0.511l-0.001,0
	c-0.006-0.441,0.091-0.832,0.31-1.156c0.039-0.076,0.082-0.151,0.128-0.223c0.181-0.285,0.408-0.533,0.661-0.724l2.931-2.206
	c0.103-0.077,0.194-0.182,0.266-0.3c0.082-0.134,0.137-0.264,0.157-0.374c0.017-0.092,0.015-0.19-0.006-0.286
	c-0.014-0.064-0.043-0.127-0.086-0.184l-0.035-0.058l-4.533-6.49L9.977,8.447C9.882,8.321,9.72,8.248,9.537,8.232
	C9.281,8.209,8.994,8.29,8.741,8.481l-2.934,2.208c-0.982,0.74-1.519,1.827-1.775,3.02c-0.403,1.872-0.155,4.002,0.207,5.65
	c0.456,2.081,1.282,4.376,2.449,6.753c1.128,2.297,2.92,5.119,4.672,7.447c1.752,2.327,3.967,4.831,5.863,6.551
	c1.962,1.78,3.937,3.208,5.811,4.223c1.589,0.86,3.116,1.425,4.51,1.657c1.221,0.204,2.32,0.144,3.238-0.208
	c0.845-0.323,2.24-1.419,3.223-2.191C34.424,43.262,34.675,43.06,34.733,43.017L34.733,43.017z M25.532,8.317
	c-1.035,0.215-1.7,1.23-1.485,2.265c0.215,1.036,1.23,1.7,2.265,1.485c0.313-0.065,0.63-0.115,0.95-0.148
	c0.285-0.029,0.608-0.044,0.967-0.044c2.568,0,4.893,1.041,6.575,2.723c1.682,1.682,2.723,4.007,2.723,6.575
	c0,0.69-0.074,1.358-0.213,1.996c-0.147,0.672-0.359,1.306-0.629,1.893c-0.439,0.961-0.016,2.096,0.945,2.535
	c0.961,0.439,2.096,0.016,2.535-0.945c0.395-0.859,0.699-1.755,0.899-2.673c0.198-0.908,0.303-1.848,0.303-2.806
	c0-3.628-1.471-6.912-3.848-9.29c-2.378-2.377-5.663-3.848-9.29-3.848c-0.425,0-0.879,0.025-1.358,0.075
	C26.417,8.156,25.969,8.226,25.532,8.317L25.532,8.317z M25.515,0.555c-1.048,0.137-1.787,1.097-1.65,2.145
	c0.137,1.048,1.097,1.787,2.145,1.65c0.337-0.044,0.706-0.079,1.103-0.105c0.33-0.021,0.702-0.032,1.117-0.032
	c4.683,0,8.924,1.899,11.993,4.967s4.967,7.309,4.967,11.993c0,1.29-0.136,2.524-0.394,3.687c-0.269,1.218-0.671,2.388-1.188,3.493
	c-0.447,0.957-0.034,2.095,0.922,2.543s2.095,0.034,2.543-0.922c0.634-1.355,1.126-2.791,1.458-4.288
	c0.327-1.475,0.499-2.987,0.499-4.512c0-5.743-2.328-10.944-6.093-14.708c-3.764-3.764-8.965-6.093-14.708-6.093
	c-0.416,0-0.87,0.016-1.357,0.048C26.443,0.448,25.99,0.493,25.515,0.555L25.515,0.555z M38.956,43.056
	c-0.224,1.149-0.88,2.251-1.913,3.029c-0.454,0.342-0.565,0.429-0.678,0.517c-1.182,0.929-2.859,2.246-4.203,2.76
	c-1.575,0.602-3.352,0.722-5.248,0.406c-1.806-0.301-3.735-1.007-5.704-2.073c-2.155-1.168-4.387-2.773-6.562-4.747
	c-2.087-1.894-4.472-4.577-6.356-7.08c-1.884-2.504-3.803-5.538-5.045-8.068c-1.294-2.636-2.22-5.225-2.745-7.62
	c-0.452-2.062-0.753-4.771-0.213-7.279c0.436-2.03,1.399-3.919,3.208-5.281l2.934-2.209c1.033-0.778,2.274-1.103,3.44-1
	c1.238,0.109,2.396,0.693,3.173,1.725l0.035,0.058l4.533,6.49l0.004-0.003c0.375,0.498,0.626,1.06,0.757,1.65
	c0.13,0.584,0.137,1.201,0.027,1.81c-0.107,0.593-0.335,1.185-0.656,1.706c-0.319,0.518-0.734,0.99-1.218,1.355l-2.008,1.511
	l10.056,13.362l1.963-1.477c1.033-0.778,2.274-1.103,3.44-1c1.238,0.109,2.396,0.693,3.173,1.725l-0.004,0.003l4.982,6.152
	l0.046,0.049C38.953,40.562,39.194,41.836,38.956,43.056L38.956,43.056z"/>
</svg>
